<svg width="164" height="35" viewBox="0 0 164 35" fill="none" xmlns="http://www.w3.org/2000/svg">
<path d="M74.329 24.5599C74.329 27.4734 73.2885 29.5478 71.2074 30.783C69.1397 32.0183 66.4813 32.6359 63.2321 32.6359H54.5921V4.78271H62.7286C65.7898 4.78271 68.2871 5.3332 70.2205 6.43417C72.1539 7.53514 73.1206 9.34771 73.1206 11.8719C73.1206 13.4831 72.6373 14.7988 71.6706 15.8193C70.7039 16.8397 69.4754 17.5311 67.985 17.8936C69.7842 18.1756 71.2879 18.8402 72.4963 19.8875C73.7181 20.9347 74.329 22.4922 74.329 24.5599ZM67.5419 12.3552C67.5419 11.12 67.1526 10.2204 66.3738 9.65652C65.6085 9.0926 64.4471 8.81065 62.8897 8.81065H60.1104V16.1616H63.1314C64.6485 16.1616 65.7629 15.8595 66.4745 15.2553C67.1861 14.6512 67.5419 13.6845 67.5419 12.3552ZM68.6093 24.4189C68.6093 22.8212 68.1663 21.6933 67.2801 21.0354C66.394 20.3775 65.1453 20.0486 63.5341 20.0486H60.1104V28.5073H63.2925C64.8768 28.5073 66.159 28.2186 67.1392 27.6412C68.1193 27.0505 68.6093 25.9764 68.6093 24.4189Z" fill="#2DEFCE"/>
<path d="M85.9148 32.7564H81.4971V24.3402L74.1289 10.4583H78.9658L83.7866 20.6158L88.6557 10.4583H93.283L85.9148 24.3079V32.7564Z" fill="#2DEFCE"/>
<path d="M105.214 32.7564H100.812V13.9248H94.2987V10.4583H111.921L111.47 13.9248H105.214V32.7564Z" fill="#2DEFCE"/>
<path d="M117.34 19.8258H125.24V23.0342H117.34V29.5157H126.933V32.7564H112.922V10.4583H126.82L126.368 13.7152H117.34V19.8258Z" fill="#2DEFCE"/>
<path d="M145.273 26.3555C145.273 27.7099 144.924 28.9083 144.225 29.951C143.527 30.9828 142.516 31.789 141.194 32.3694C139.883 32.9498 138.324 33.2401 136.518 33.2401C132.982 33.2401 130.161 32.2136 128.054 30.1606L130.376 27.5648C132.085 29.1018 134.111 29.8704 136.454 29.8704C137.69 29.8704 138.7 29.5909 139.485 29.032C140.28 28.4623 140.678 27.6669 140.678 26.6458C140.678 26.0223 140.549 25.5064 140.291 25.098C140.033 24.6788 139.593 24.3079 138.969 23.9855C138.356 23.6523 137.48 23.3137 136.341 22.9697C134.654 22.4538 133.283 21.8949 132.23 21.2929C131.187 20.6803 130.408 19.9601 129.892 19.1325C129.387 18.3048 129.134 17.3213 129.134 16.182C129.134 14.9351 129.483 13.8441 130.182 12.909C130.881 11.9631 131.837 11.2376 133.052 10.7324C134.267 10.2272 135.626 9.97461 137.131 9.97461C138.743 9.97461 140.178 10.2111 141.436 10.684C142.704 11.1462 143.833 11.8288 144.822 12.7316L142.613 15.2307C141.86 14.5858 141.044 14.1075 140.162 13.7958C139.281 13.4733 138.373 13.3121 137.437 13.3121C136.32 13.3121 135.417 13.5378 134.729 13.9892C134.041 14.4299 133.697 15.0641 133.697 15.8917C133.697 16.4292 133.842 16.8806 134.132 17.2461C134.433 17.6115 134.928 17.9501 135.616 18.2618C136.303 18.5735 137.308 18.9336 138.631 19.3421C140.071 19.7827 141.269 20.2826 142.226 20.8415C143.183 21.4004 143.93 22.126 144.467 23.0181C145.004 23.9102 145.273 25.0227 145.273 26.3555Z" fill="#2DEFCE"/>
<path d="M33.5466 23.1534C33.5466 24.8421 33.2751 26.4045 32.7322 27.8406C32.2014 29.2767 31.3026 30.4535 30.0359 31.371C28.7692 32.2752 27.1044 32.7273 25.0414 32.7273C23.7988 32.7273 22.5924 32.5146 21.4222 32.089C20.252 31.6635 19.1783 31.0452 18.2011 30.2341L19.5945 27.9403C20.5958 28.6451 21.5368 29.1371 22.4175 29.4163C23.3102 29.6956 24.1728 29.8352 25.0052 29.8352C26.7183 29.8352 28.0454 29.2302 28.9863 28.0201C29.9394 26.7968 30.4159 25.1081 30.4159 22.9539V7.63563H23.0327V4.80334H33.5466V23.1534Z" fill="#01D9B2"/>
<path d="M47.446 10.807C47.9407 10.807 48.3931 10.8469 48.8032 10.9267C49.2134 10.9932 49.6598 11.1062 50.1424 11.2658L49.708 18.3664H47.2108V13.8986H47.0479C45.5761 13.8986 44.3214 14.4704 43.2839 15.6139C42.2464 16.7575 41.408 18.4861 40.7686 20.7998V29.6956H44.6411V32.2686H34.7607V29.6956H37.7284V13.8387H34.7607V11.2658H40.0447L40.6057 16.2322C41.3778 14.4105 42.2947 13.0542 43.3563 12.1633C44.43 11.2591 45.7933 10.807 47.446 10.807Z" fill="#01D9B2"/>
<path d="M3.69079 17.9967L12.4424 21.5337V24.2738L1.00658 18.9753V16.9342L12.4424 11.6497V14.3898L3.69079 17.9967Z" fill="#686D82"/>
<path d="M160.089 18.2143L150.848 14.5934V11.9371L162.787 17.2217V19.2628L150.848 24.5613V21.8771L160.089 18.2143Z" fill="#686D82"/>
</svg>
